# xmcd CD database file
#
# Track frame offsets:
#	150
#	15890
#	34980
#	47211
#	62623
#	78145
#	92723
#	108000
#	121014
#	133446
#	157050
#
# Disc length: 2291 seconds
#
# Revision: 3
# Processed by: cddbd v1.5.2PL0 Copyright (c) Steve Scherf et al.
# Submitted via: CDex 2.21
#
DISCID=8308f10b
DTITLE=Kelly Willis and Bruce Robinson - Happy Holiday
DYEAR=2006
DGENRE=Country
TTITLE0=Santa Baby
TTITLE1=A Winter's Tale
TTITLE2=In The Bleak Midwinter
TTITLE3=Baby, It's Cold Outside
TTITLE4=The Christmas Waltz
TTITLE5=Please Daddy, Don't Get Drunk
TTITLE6=Blue Christmas
TTITLE7=Shut In At Christmas
TTITLE8=Santa Looked A Lot Like Daddy
TTITLE9=Have Yourself A Merry Little Christmas
TTITLE10=Oklahoma Christmas
EXTD=YEAR: 2006
EXTT0=
EXTT1=
EXTT2=
EXTT3=
EXTT4=
EXTT5=
EXTT6=
EXTT7=
EXTT8=
EXTT9=
EXTT10=
PLAYORDER=
